<svg width="25" height="28" viewBox="0 0 25 28" fill="none" xmlns="http://www.w3.org/2000/svg">
<path fill-rule="evenodd" clip-rule="evenodd" d="M22.8964 8.16534C22.9914 8.30955 23.0338 8.48212 23.0163 8.65393C22.9988 8.82573 22.9225 8.98624 22.8004 9.10834L13.6074 18.3003C13.5134 18.3943 13.396 18.4616 13.2674 18.4953L9.43842 19.4953C9.31185 19.5284 9.17885 19.5277 9.05262 19.4934C8.92638 19.4591 8.81131 19.3924 8.71882 19.2999C8.62632 19.2075 8.55963 19.0924 8.52535 18.9661C8.49108 18.8399 8.49041 18.7069 8.52342 18.5803L9.52342 14.7523C9.55332 14.6377 9.60832 14.5311 9.68442 14.4403L18.9114 5.21934C19.052 5.07889 19.2427 5 19.4414 5C19.6402 5 19.8308 5.07889 19.9714 5.21934L22.8004 8.04734C22.8354 8.08418 22.8675 8.12363 22.8964 8.16534ZM21.2094 8.57734L19.4414 6.81034L10.9234 15.3283L10.2984 17.7213L12.6914 17.0963L21.2094 8.57734Z" fill="#5BD1D7"/>
<path d="M21.0824 19.9093C21.3557 17.5733 21.443 15.2192 21.3434 12.8693C21.3411 12.814 21.3503 12.7587 21.3704 12.7071C21.3905 12.6554 21.4212 12.6085 21.4604 12.5693L22.4444 11.5853C22.4713 11.5583 22.5054 11.5396 22.5427 11.5315C22.58 11.5234 22.6188 11.5262 22.6545 11.5396C22.6902 11.553 22.7212 11.5765 22.7439 11.6071C22.7666 11.6377 22.78 11.6743 22.7824 11.7123C22.9671 14.5036 22.8968 17.3059 22.5724 20.0843C22.3364 22.1063 20.7124 23.6913 18.6994 23.9163C15.2048 24.3031 11.6781 24.3031 8.18342 23.9163C6.17142 23.6913 4.54642 22.1063 4.31042 20.0843C3.89653 16.5397 3.89653 12.959 4.31042 9.41434C4.54642 7.39234 6.17042 5.80734 8.18342 5.58234C10.8359 5.28939 13.5081 5.21815 16.1724 5.36934C16.2105 5.37208 16.2471 5.38569 16.2777 5.40856C16.3084 5.43142 16.3318 5.46259 16.3453 5.49836C16.3587 5.53414 16.3617 5.57303 16.3537 5.61042C16.3458 5.64781 16.3273 5.68214 16.3004 5.70934L15.3074 6.70134C15.2686 6.74019 15.2222 6.77063 15.1711 6.79076C15.12 6.81088 15.0653 6.82028 15.0104 6.81834C12.7872 6.74219 10.5613 6.82742 8.35042 7.07334C7.70436 7.14485 7.10127 7.43207 6.63857 7.8886C6.17588 8.34512 5.88059 8.9443 5.80042 9.58934C5.39928 13.0177 5.39928 16.481 5.80042 19.9093C5.88059 20.5544 6.17588 21.1536 6.63857 21.6101C7.10127 22.0666 7.70436 22.3538 8.35042 22.4253C11.7054 22.8003 15.1774 22.8003 18.5334 22.4253C19.1795 22.3538 19.7826 22.0666 20.2453 21.6101C20.708 21.1536 21.0022 20.5544 21.0824 19.9093Z" fill="#5BD1D7"/>
</svg>
