<svg
  width="76"
  height="76"
  viewBox="0 0 76 76"
  fill="none"
  xmlns="http://www.w3.org/2000/svg"
>
  <g clip-path="url(#clip0_228_301)">
    <path
      d="M31.6667 16.8889H50.6667V21.1111H31.6667V16.8889Z"
      fill="#5BD1D7"
    />
    <path
      d="M31.6667 25.3333H50.6667V29.5555H31.6667V25.3333Z"
      fill="#5BD1D7"
    />
    <path
      d="M31.6667 33.7778H50.6667V38.0001H31.6667V33.7778Z"
      fill="#5BD1D7"
    />
    <path
      d="M31.6667 42.2222H50.6667V46.4444H31.6667V42.2222Z"
      fill="#5BD1D7"
    />
    <path d="M31.6667 50.6667H50.6667V54.889H31.6667V50.6667Z" fill="#5BD1D7" />
    <path
      d="M23.2222 16.8889H27.4444V21.1111H23.2222V16.8889Z"
      fill="#5BD1D7"
    />
    <path
      d="M23.2222 25.3333H27.4444V29.5555H23.2222V25.3333Z"
      fill="#5BD1D7"
    />
    <path
      d="M23.2222 33.7778H27.4444V38.0001H23.2222V33.7778Z"
      fill="#5BD1D7"
    />
    <path
      d="M23.2222 42.2222H27.4444V46.4444H23.2222V42.2222Z"
      fill="#5BD1D7"
    />
    <path d="M23.2222 50.6667H27.4444V54.889H23.2222V50.6667Z" fill="#5BD1D7" />
    <path
      d="M59.1111 4.22217H16.8889C15.7691 4.22217 14.6952 4.66701 13.9033 5.45883C13.1115 6.25065 12.6667 7.32459 12.6667 8.44439V67.5555C12.6667 68.6753 13.1115 69.7492 13.9033 70.5411C14.6952 71.3329 15.7691 71.7777 16.8889 71.7777H59.1111C60.2309 71.7777 61.3049 71.3329 62.0967 70.5411C62.8885 69.7492 63.3333 68.6753 63.3333 67.5555V8.44439C63.3333 7.32459 62.8885 6.25065 62.0967 5.45883C61.3049 4.66701 60.2309 4.22217 59.1111 4.22217ZM59.1111 67.5555H16.8889V8.44439H59.1111V67.5555Z"
      fill="#5BD1D7"
    />
  </g>
  <defs>
    <clipPath id="clip0_228_301">
      <rect width="76" height="76" fill="white" />
    </clipPath>
  </defs>
</svg>
