<svg width="26" height="26" viewBox="0 0 26 26" fill="none" xmlns="http://www.w3.org/2000/svg">
<circle cx="13" cy="13" r="13" fill="#5BD1D7"/>
<path d="M13 15.083C13.1983 15.083 13.3647 15.0159 13.4991 14.8818C13.6335 14.7476 13.7005 14.5818 13.7 14.3843C13.6995 14.1868 13.6323 14.021 13.4984 13.8869C13.3645 13.7527 13.1983 13.6856 13 13.6856C12.8017 13.6856 12.6355 13.7527 12.5016 13.8869C12.3677 14.021 12.3005 14.1868 12.3 14.3843C12.2995 14.5818 12.3667 14.7479 12.5016 14.8825C12.6365 15.0171 12.8026 15.084 13 15.083ZM13 12.2882C13.1983 12.2882 13.3647 12.2212 13.4991 12.087C13.6335 11.9529 13.7005 11.787 13.7 11.5896V8.79478C13.7 8.59681 13.6328 8.43099 13.4984 8.29731C13.364 8.16362 13.1979 8.09655 13 8.09608C12.8021 8.09562 12.636 8.16269 12.5016 8.29731C12.3672 8.43192 12.3 8.59774 12.3 8.79478V11.5896C12.3 11.7875 12.3672 11.9536 12.5016 12.0877C12.636 12.2219 12.8021 12.2887 13 12.2882ZM8.8 17.1791L7.19 18.7861C6.96833 19.0074 6.71447 19.057 6.4284 18.9349C6.14233 18.8129 5.99953 18.5944 6 18.2795V7.39739C6 7.01311 6.1372 6.68425 6.4116 6.41083C6.686 6.13741 7.01547 6.00047 7.4 6H18.6C18.985 6 19.3147 6.13694 19.5891 6.41083C19.8635 6.68472 20.0005 7.01357 20 7.39739V15.7817C20 16.166 19.863 16.4951 19.5891 16.769C19.3152 17.0429 18.9855 17.1796 18.6 17.1791H8.8ZM8.205 15.7817H18.6V7.39739H7.4V16.5677L8.205 15.7817Z" fill="#DEDEDE"/>
</svg>
