<svg width="70" height="70" viewBox="0 0 70 70" fill="none" xmlns="http://www.w3.org/2000/svg">
<path d="M64.1667 34.9999C64.1667 31.1697 63.4123 27.377 61.9465 23.8383C60.4807 20.2997 58.3323 17.0843 55.624 14.376C52.9156 11.6676 49.7003 9.51919 46.1616 8.05343C42.6229 6.58767 38.8302 5.83325 35 5.83325V11.6666C39.6147 11.6665 44.1258 13.0347 47.9629 15.5983C51.8 18.162 54.7908 21.8058 56.5571 26.0691C57.7299 28.9005 58.3335 31.9352 58.3333 34.9999H64.1667ZM5.83334 29.1666V14.5833C5.83334 13.8097 6.14063 13.0678 6.68762 12.5209C7.2346 11.9739 7.97646 11.6666 8.75001 11.6666H23.3333C24.1069 11.6666 24.8488 11.9739 25.3957 12.5209C25.9427 13.0678 26.25 13.8097 26.25 14.5833V26.2499C26.25 27.0235 25.9427 27.7653 25.3957 28.3123C24.8488 28.8593 24.1069 29.1666 23.3333 29.1666H17.5C17.5 35.355 19.9583 41.2899 24.3342 45.6657C28.71 50.0416 34.645 52.4999 40.8333 52.4999V46.6666C40.8333 45.893 41.1406 45.1512 41.6876 44.6042C42.2346 44.0572 42.9765 43.7499 43.75 43.7499H55.4167C56.1902 43.7499 56.9321 44.0572 57.4791 44.6042C58.0261 45.1512 58.3333 45.893 58.3333 46.6666V61.2499C58.3333 62.0235 58.0261 62.7653 57.4791 63.3123C56.9321 63.8593 56.1902 64.1666 55.4167 64.1666H40.8333C21.5046 64.1666 5.83334 48.4953 5.83334 29.1666Z" fill="#5BD1D7"/>
<path d="M51.1671 28.3033C52.0468 30.4264 52.4997 32.7019 52.5 35H47.25C47.25 31.7511 45.9594 28.6353 43.6621 26.3379C41.3647 24.0406 38.2489 22.75 35 22.75V17.5C38.4611 17.5002 41.8444 18.5267 44.7221 20.4496C47.5998 22.3726 49.8426 25.1057 51.1671 28.3033Z" fill="#5BD1D7"/>
</svg>
