<svg width="85" height="85" viewBox="0 0 85 85" fill="none" xmlns="http://www.w3.org/2000/svg">
<path d="M14.9492 67.6594C15.746 73.574 20.6442 78.21 26.6083 78.4827C31.6233 78.7129 36.7198 78.8334 42.3333 78.8334C47.9469 78.8334 53.0433 78.7129 58.0583 78.4792C64.0225 78.21 68.9206 73.574 69.7175 67.6594C70.2381 63.799 70.6667 59.843 70.6667 55.8125C70.6667 51.7821 70.2381 47.8261 69.7175 43.9657C68.9206 38.0511 64.0225 33.415 58.0583 33.1423C52.8201 32.9029 47.577 32.786 42.3333 32.7917C36.7198 32.7917 31.6233 32.9121 26.6083 33.1459C20.6442 33.415 15.746 38.0511 14.9492 43.9657C14.425 47.8261 14 51.7821 14 55.8125C14 59.843 14.4285 63.799 14.9492 67.6594Z" stroke="#5BD1D7" stroke-width="4" stroke-linecap="round" stroke-linejoin="round"/>
<path d="M26.3959 32.7917V23.9375C26.3959 19.7106 28.075 15.6568 31.0639 12.668C34.0527 9.67912 38.1065 8 42.3334 8C46.5603 8 50.614 9.67912 53.6029 12.668C56.5917 15.6568 58.2709 19.7106 58.2709 23.9375V32.7917M28.1667 62.8958V57.5833C28.1667 53.8261 29.6593 50.2228 32.316 47.566C34.9728 44.9092 38.5761 43.4167 42.3334 43.4167C46.0906 43.4167 49.694 44.9092 52.3507 47.566C55.0075 50.2228 56.5 53.8261 56.5 57.5833V62.8958" stroke="#5BD1D7" stroke-width="4" stroke-linecap="round" stroke-linejoin="round"/>
<path d="M37.0209 68.2083V57.5833C37.0209 56.1743 37.5806 54.823 38.5769 53.8267C39.5732 52.8305 40.9244 52.2708 42.3334 52.2708C43.7423 52.2708 45.0936 52.8305 46.0899 53.8267C47.0862 54.823 47.6459 56.1743 47.6459 57.5833M47.6459 68.2083V64.6666" stroke="#5BD1D7" stroke-width="4" stroke-linecap="round" stroke-linejoin="round"/>
</svg>
