<svg width="112" height="112" viewBox="0 0 112 112" fill="none" xmlns="http://www.w3.org/2000/svg">
<path d="M56 18.6667C60.9507 18.6667 65.6986 20.6334 69.1993 24.1341C72.7 27.6348 74.6667 32.3827 74.6667 37.3334C74.6667 42.2841 72.7 47.0321 69.1993 50.5327C65.6986 54.0334 60.9507 56.0001 56 56.0001C51.0493 56.0001 46.3013 54.0334 42.8007 50.5327C39.3 47.0321 37.3333 42.2841 37.3333 37.3334C37.3333 32.3827 39.3 27.6348 42.8007 24.1341C46.3013 20.6334 51.0493 18.6667 56 18.6667ZM56 65.3334C76.6267 65.3334 93.3333 73.6867 93.3333 84.0001V93.3334H18.6667V84.0001C18.6667 73.6867 35.3733 65.3334 56 65.3334Z" fill="#5BD1D7"/>
</svg>
