<svg width="26" height="26" viewBox="0 0 26 26" fill="none" xmlns="http://www.w3.org/2000/svg">
<path d="M26 13C26 20.1795 20.1795 26 13 26C5.82045 26 0 20.1795 0 13C0 5.82045 5.82045 0 13 0C20.1795 0 26 5.82045 26 13ZM6.5 18.3182H10.4922C10.6751 18.8372 11.0146 19.2866 11.4638 19.6045C11.913 19.9225 12.4497 20.0932 13 20.0932C13.5503 20.0932 14.087 19.9225 14.5362 19.6045C14.9854 19.2866 15.3249 18.8372 15.5078 18.3182H19.5V16.406L18.3182 14.0424V11.2273C18.3182 9.8168 17.7579 8.4641 16.7605 7.46675C15.7632 6.4694 14.4105 5.90909 13 5.90909C11.5895 5.90909 10.2368 6.4694 9.23948 7.46675C8.24213 8.4641 7.68182 9.8168 7.68182 11.2273V14.0424L6.5 16.406V18.3182Z" fill="#5BD1D7"/>
</svg>
