<svg
  width="76"
  height="76"
  viewBox="0 0 76 76"
  fill="none"
  xmlns="http://www.w3.org/2000/svg"
>
  <path
    d="M2.94917 61.6594C3.74604 67.574 8.64417 72.21 14.6083 72.4827C19.6233 72.7129 24.7198 72.8334 30.3333 72.8334C35.9469 72.8334 41.0433 72.7129 46.0583 72.4792C52.0225 72.21 56.9206 67.574 57.7175 61.6594C58.2381 57.799 58.6667 53.843 58.6667 49.8125C58.6667 45.7821 58.2381 41.8261 57.7175 37.9657C56.9206 32.0511 52.0225 27.415 46.0583 27.1423C40.8201 26.9029 35.577 26.786 30.3333 26.7917C24.7198 26.7917 19.6233 26.9121 14.6083 27.1459C8.64417 27.415 3.74604 32.0511 2.94917 37.9657C2.425 41.8261 2 45.7821 2 49.8125C2 53.843 2.42854 57.799 2.94917 61.6594Z"
    stroke="#5BD1D7"
    stroke-width="3"
    stroke-linecap="round"
    stroke-linejoin="round"
  />
  <path
    d="M14.3958 26.7917V17.9375C14.3958 13.7106 16.075 9.65685 19.0638 6.66799C22.0527 3.67912 26.1065 2 30.3333 2C34.5602 2 38.614 3.67912 41.6029 6.66799C44.5917 9.65685 46.2708 13.7106 46.2708 17.9375V26.7917M16.1667 56.8958V51.5833C16.1667 47.8261 17.6592 44.2227 20.316 41.566C22.9728 38.9092 26.5761 37.4167 30.3333 37.4167C34.0906 37.4167 37.6939 38.9092 40.3507 41.566C43.0075 44.2227 44.5 47.8261 44.5 51.5833V56.8958"
    stroke="#5BD1D7"
    stroke-width="3"
    stroke-linecap="round"
    stroke-linejoin="round"
  />
  <path
    d="M25.0208 62.2083V51.5833C25.0208 50.1743 25.5806 48.823 26.5768 47.8267C27.5731 46.8305 28.9244 46.2708 30.3333 46.2708C31.7423 46.2708 33.0936 46.8305 34.0898 47.8267C35.0861 48.823 35.6458 50.1743 35.6458 51.5833M35.6458 62.2083V58.6666"
    stroke="#5BD1D7"
    stroke-width="3"
    stroke-linecap="round"
    stroke-linejoin="round"
  />
</svg>
